<svg version="1.1" id="Layer_1" xmlns="http://www.w3.org/2000/svg" xmlns:xlink="http://www.w3.org/1999/xlink" x="0px" y="0px"
	 width="100%" viewBox="0 0 704 432" enable-background="new 0 0 704 432" xml:space="preserve">
<path fill="#3fbb4f" opacity="1.000000" stroke="none" 
	d="
M261.791595,237.219910 
	C274.623505,251.433334 287.212036,265.389191 300.323242,279.924530 
	C303.972412,275.697815 307.178741,271.951508 310.423065,268.238342 
	C312.380981,265.997528 310.618988,264.664948 309.287964,263.186920 
	C300.589355,253.527924 291.890778,243.868835 283.210358,234.193512 
	C282.101105,232.957123 280.937347,231.724457 280.074982,230.320450 
	C277.730377,226.503250 278.395508,222.187454 281.582855,219.480621 
	C284.572601,216.941589 289.451904,216.893188 292.658539,219.492111 
	C293.813202,220.427933 294.785126,221.599487 295.787598,222.711136 
	C311.857025,240.530869 327.923737,258.353180 343.966858,276.196564 
	C344.954834,277.295380 345.741974,278.574738 346.608398,279.750824 
	C350.608185,277.156860 352.621277,274.032684 354.992645,271.320160 
	C388.771881,232.681198 422.492249,193.990753 456.232483,155.317642 
	C457.437134,153.936844 458.606567,152.504791 459.953217,151.272308 
	C463.591766,147.942215 468.442047,147.812622 471.697235,150.844147 
	C474.981628,153.902863 475.484833,158.765640 472.322540,162.542511 
	C464.409790,171.993042 456.301239,181.281021 448.200867,190.572830 
	C421.598145,221.088165 394.964050,251.576141 368.342224,282.074829 
	C363.741455,287.345642 359.189148,292.659760 354.527618,297.876251 
	C350.344757,302.557068 345.051056,302.622864 340.665741,297.945648 
	C335.095825,292.005066 329.689636,285.911011 323.998627,279.647339 
	C320.097900,282.482056 317.718292,286.327820 314.676025,289.509003 
	C312.145325,292.155273 309.882202,295.056000 307.378967,297.730255 
	C302.700653,302.728241 297.887665,302.748505 293.217255,297.609558 
	C281.000793,284.167511 268.877197,270.641022 256.726990,257.138824 
	C249.481598,249.087219 242.214371,241.054626 235.037079,232.942596 
	C230.813538,228.169022 230.562546,222.975418 234.187027,219.642075 
	C237.869522,216.255356 243.503952,217.139374 247.757629,221.797836 
	C252.364716,226.843353 256.952179,231.906754 261.791595,237.219910 
z"/>
<path fill="#3fbb4f" opacity="1.000000" stroke="none" 
	d="
M394.290466,172.309448 
	C398.375458,167.678055 402.124664,163.212341 406.109711,158.968048 
	C409.876282,154.956436 414.940247,154.613403 418.535431,157.820511 
	C422.134247,161.030899 422.255829,166.090195 418.598877,170.300156 
	C396.558167,195.673981 374.473633,221.009735 352.397522,246.352829 
	C351.742340,247.104919 351.049866,247.830627 350.321991,248.512268 
	C346.665253,251.936707 342.024689,252.289612 338.625854,249.425507 
	C335.059479,246.420197 334.547852,241.473648 337.664673,237.328400 
	C339.960052,234.275635 342.565155,231.452164 345.082977,228.570816 
	C361.400146,209.897720 377.731232,191.236786 394.290466,172.309448 
z"/>
</svg>