<svg version="1.1" id="Layer_1" xmlns="http://www.w3.org/2000/svg" xmlns:xlink="http://www.w3.org/1999/xlink" x="0px" y="0px"
	 width="100%" viewBox="0 0 176 192" enable-background="new 0 0 176 192" xml:space="preserve">
<path fill="#fff" opacity="1.000000" stroke="none" 
	d="
M49.657703,114.217079 
	C43.596195,99.975624 39.440990,85.750038 39.594418,70.409050 
	C39.856800,44.173779 59.438972,20.938467 85.238640,16.734026 
	C116.778229,11.594182 145.430084,32.116837 150.017334,63.754070 
	C152.011963,77.510742 149.057205,90.954460 144.308853,103.923248 
	C134.037186,131.977432 117.589157,156.361023 99.047913,179.463898 
	C96.112404,183.121613 93.797897,182.922638 90.558807,178.990616 
	C74.277252,159.226059 60.169266,138.077560 49.657703,114.217079 
M59.788254,39.292843 
	C56.627941,43.175201 53.731968,47.204273 51.627670,51.802578 
	C45.113110,66.038139 46.787968,80.402306 51.088566,94.686668 
	C59.385452,122.244614 74.671570,145.953583 92.191689,168.406967 
	C94.865929,171.834198 96.460449,170.055389 98.298370,167.690414 
	C110.702209,151.729660 121.604599,134.827148 130.334000,116.570038 
	C136.616486,103.430496 141.538574,89.790993 142.548889,75.177307 
	C143.978256,54.502151 132.793839,36.159206 114.523132,28.070827 
	C95.860336,19.808876 75.061737,23.905035 59.788254,39.292843 
z"/>
<path fill="#fff" opacity="1.000000" stroke="none" 
	d="
M110.772308,93.856789 
	C95.849670,105.499527 74.296951,97.961754 70.865578,79.335419 
	C68.714645,67.659637 74.948402,56.571056 85.620193,52.188858 
	C95.872940,47.978729 108.249443,51.386238 114.702782,60.195885 
	C121.550957,69.544540 120.919426,82.663589 113.177185,91.519028 
	C112.522583,92.267754 111.764603,92.926079 110.772308,93.856789 
M91.464928,91.171806 
	C104.161293,93.084373 114.406960,82.444130 111.095390,70.785332 
	C108.853088,62.891022 102.032196,57.934860 93.996773,58.361214 
	C86.296501,58.769783 79.472389,65.072334 78.417068,72.750168 
	C77.314453,80.772171 82.015839,87.708664 91.464928,91.171806 
z"/>
</svg>