<svg version="1.1" id="Layer_1" xmlns="http://www.w3.org/2000/svg" xmlns:xlink="http://www.w3.org/1999/xlink" x="0px" y="0px"
	 width="100%" viewBox="0 0 336 368" enable-background="new 0 0 336 368" xml:space="preserve">
<path fill="#545454" opacity="1.000000" stroke="none" 
	d="
M221.920471,194.920517 
	C195.639664,221.204636 169.614182,247.244110 143.575012,273.269867 
	C135.092758,281.747742 128.442169,281.723511 120.001389,273.288849 
	C99.028748,252.331375 78.048157,231.381851 57.060169,210.439743 
	C54.325428,207.710999 51.688301,204.922714 50.862587,200.973160 
	C49.794559,195.864594 52.022820,190.130356 56.261208,187.362167 
	C61.012627,184.258896 65.974617,184.026215 70.829391,187.048035 
	C72.639999,188.175018 74.210754,189.742004 75.737068,191.262726 
	C93.082558,208.544830 110.467323,225.788742 127.659264,243.222672 
	C130.812271,246.420044 132.646515,246.630737 135.987701,243.273422 
	C184.633987,194.392044 233.431351,145.661026 282.182495,96.883980 
	C285.041504,94.023491 287.987335,91.258522 292.205200,90.759850 
	C297.577759,90.124657 302.190369,91.770897 305.207977,96.415298 
	C308.295410,101.167213 308.302246,106.187614 305.209534,110.979340 
	C304.051849,112.773010 302.489166,114.335327 300.967102,115.859245 
	C274.714935,142.143036 248.440247,168.404312 221.920471,194.920517 
z"/>
</svg>