<svg version="1.1" id="Layer_1" xmlns="http://www.w3.org/2000/svg" xmlns:xlink="http://www.w3.org/1999/xlink" x="0px" y="0px"
	 width="100%" viewBox="0 0 192 176" enable-background="new 0 0 183 190" xml:space="preserve">
<path fill="#0000" opacity="1.000000" stroke="none" 
	d="
M1.000001,185.000000 
	C1.000000,123.715309 1.000000,62.430618 1.000000,1.072965 
	C61.902905,1.072965 122.805923,1.072965 184.000000,1.072965 
	C184.000000,62.353920 184.000000,123.708305 183.576843,185.540390 
	C180.205017,186.345596 177.256653,186.955505 174.307648,186.958694 
	C121.070312,187.016205 67.832787,187.048950 14.595733,186.913727 
	C10.062232,186.902206 5.531839,185.666824 1.000001,185.000000 
M75.884865,97.500031 
	C75.884613,79.671318 75.923927,61.842480 75.866890,44.013947 
	C75.839668,35.504807 71.358368,31.046335 62.985867,30.961235 
	C60.486759,30.935833 57.987179,30.951399 55.487835,30.957001 
	C45.432781,30.979532 41.336353,35.083290 41.326153,45.256676 
	C41.304436,66.917755 41.319134,88.578873 41.319122,110.239975 
	C41.319115,121.237144 41.284691,132.234451 41.330376,143.231445 
	C41.369930,152.751801 45.610249,157.000397 54.981915,157.042038 
	C57.481224,157.053131 59.980690,157.055374 62.479969,157.040955 
	C71.489273,156.988937 75.852966,152.616119 75.874710,143.488464 
	C75.910431,128.492401 75.884689,113.496193 75.884865,97.500031 
M133.081955,30.963017 
	C129.920273,30.960947 126.758514,30.944439 123.596916,30.959547 
	C114.546623,31.002798 110.152451,35.343765 110.126282,44.399456 
	C110.085899,58.377415 110.115143,72.355568 110.115173,86.333641 
	C110.115211,105.470291 110.086647,124.607002 110.128716,143.743561 
	C110.147972,152.503616 114.617836,156.972641 123.246971,157.039444 
	C126.075699,157.061340 128.904968,157.066788 131.733582,157.038864 
	C139.927963,156.957993 144.610153,152.658905 144.634399,144.538239 
	C144.734802,110.924606 144.717270,77.310410 144.646347,43.696625 
	C144.630585,36.226551 141.358932,32.557896 133.081955,30.963017 
z"/>
<path fill="#0000" opacity="0000000" stroke="none" 
	d="
M1.000001,185.499466 
	C5.531839,185.666824 10.062232,186.902206 14.595733,186.913727 
	C67.832787,187.048950 121.070312,187.016205 174.307648,186.958694 
	C177.256653,186.955505 180.205017,186.345596 183.576843,186.009048 
	C184.000000,187.662369 184.000000,189.324738 184.000000,190.990051 
	C123.000000,190.993011 62.000000,190.993011 1.000000,190.989532 
	C1.000000,189.323669 1.000000,187.661316 1.000001,185.499466 
z"/>
<path fill="#f2017b" opacity="1.000000" stroke="none" 
	d="
M75.884857,98.000038 
	C75.884689,113.496193 75.910431,128.492401 75.874710,143.488464 
	C75.852966,152.616119 71.489273,156.988937 62.479969,157.040955 
	C59.980690,157.055374 57.481224,157.053131 54.981915,157.042038 
	C45.610249,157.000397 41.369930,152.751801 41.330376,143.231445 
	C41.284691,132.234451 41.319115,121.237144 41.319122,110.239975 
	C41.319134,88.578873 41.304436,66.917755 41.326153,45.256676 
	C41.336353,35.083290 45.432781,30.979532 55.487835,30.957001 
	C57.987179,30.951399 60.486759,30.935833 62.985867,30.961235 
	C71.358368,31.046335 75.839668,35.504807 75.866890,44.013947 
	C75.923927,61.842480 75.884613,79.671318 75.884857,98.000038 
z"/>
<path fill="#f2017b" opacity="1.000000" stroke="none" 
	d="
M133.527008,30.975729 
	C141.358932,32.557896 144.630585,36.226551 144.646347,43.696625 
	C144.717270,77.310410 144.734802,110.924606 144.634399,144.538239 
	C144.610153,152.658905 139.927963,156.957993 131.733582,157.038864 
	C128.904968,157.066788 126.075699,157.061340 123.246971,157.039444 
	C114.617836,156.972641 110.147972,152.503616 110.128716,143.743561 
	C110.086647,124.607002 110.115211,105.470291 110.115173,86.333641 
	C110.115143,72.355568 110.085899,58.377415 110.126282,44.399456 
	C110.152451,35.343765 114.546623,31.002798 123.596916,30.959547 
	C126.758514,30.944439 129.920273,30.960947 133.527008,30.975729 
z"/>
</svg>